<svg xmlns="http://www.w3.org/2000/svg" viewBox="0 0 410 409"><defs><style>.cls-1{fill:#eec31b;}</style></defs><title>bass</title><g id="instruments"><path class="cls-1" d="M272.55,211.37c-14.37,9.26-22.28,2.44-31.31-9.28s-.09-26.05-.09-26.05c-21-30.51-50.91-36-65.86-37.55s-21.7-9.79-21.7-9.79l-2.42,1.72L105,70.11c.63-.59,1.33-1.49,1-2l-3.49-4.29.42-.3a1.49,1.49,0,0,0-1.75-2.41l-.56.4L99.33,60l.64-.47a1.49,1.49,0,0,0-1.75-2.41l-.77.56-1.24-1.51.87-.63a1.49,1.49,0,0,0-1.75-2.41l-1,.72L92.5,51.63c-2.71.93-5,.83-6-.48s-.34-3.54,1.39-5.82l-1.47-2c-.46-.63-7.1-1.68-7.73-1.23L76,43.47c-.62.45-1.08,7.27-.63,7.89l1.58,2.17c2.56-.81,4.72-.67,5.63.59s.38,3.36-1.19,5.54L83,62.13l-.7.5a1.5,1.5,0,0,0-.33,2.08A1.48,1.48,0,0,0,84,65l.57-.41,1.06,1.65-.48.34A1.49,1.49,0,1,0,86.9,69l.34-.25,1.06,1.64-.26.19a1.5,1.5,0,0,0-.33,2.08,1.48,1.48,0,0,0,2.08.33l.13-.09,2.93,4.55c.35.49,1.45.16,2.22-.22l43.57,63.18-1.9,1.81c5.59,17.12-2.07,38.81-2.07,38.81C129,213,153.78,237.42,153.78,237.42c3.5-4.94,15.37-12.2,27.41,7.47s-5.43,34.56-5.43,34.56c6.46,60.84,55.15,68.8,72.83,62.65A140.79,140.79,0,0,0,273,330.87l17.2,13.59s5.17,2.84,3.09-2.75c-1.63-4.36-7.12-14-9.44-18,14.28-10.59,27.63-25.8,32-47C324.12,236.22,272.55,211.37,272.55,211.37ZM192.66,239s-2.54.86-3,2.4,1.64,5.14,3.51,7.63,5.61,6.24,9.08,13.43,2.92,11.76,2.41,13.57-.91,6-6.87,7.79-8.61-2.25-9.95-4.15.54-8.67,5.26-6.35,1,5.45,1,5.45c2.85-.35,4-2.06,5.33-3.78s1-4.75.16-8.43-8.79-12.67-10.7-16.08-3.51-9.42-1.49-12.45a6.48,6.48,0,0,1,6.69-2.88c1.34.4,5.46,4,1.84,5.94S192.66,239,192.66,239ZM246,264.75s9.77,16,10.57,22.1S282,318.69,282,318.69s-8.1,9-13.14,10.13c0,0-14.52-26.3-24-32.89s-13.5-10.39-17.71-17.56l7.29-5.27-16.93-24.45-12.85,8.41-3.9-6,12.68-8.3L98.83,77.3,101,75.78,215.68,241.33l2.77-1.81L103.5,73.56,105.69,72l115,166,10.43-6.82,3.9,6-10.27,6.73L241.44,268Zm17-23.37c-4.31,4.5-8.21,3-10.06,2.57s-6.17-1.95-11-8.32-6.45-11.39-7.82-14.19-3.62-6.3-5.2-6.6-3.5,1.56-3.5,1.56,3.72,1.54.36,3.89-4.71-3-4.45-4.34a6.47,6.47,0,0,1,5.61-4.64c3.62-.42,8.25,3.74,10.41,7s6.53,14.46,9.44,16.85,5.43,4.14,7.59,3.69,4.17-.64,5.78-3c0,0-4.47,1.87-4.38-3.39s6.95-3.85,8-1.8S267.35,236.89,263,241.38Z"/><polygon class="cls-1" points="236.61 271.54 239.28 269.61 222.51 245.39 219.75 247.19 236.61 271.54"/></g></svg>