<svg xmlns="http://www.w3.org/2000/svg" xmlns:xlink="http://www.w3.org/1999/xlink" viewBox="0 0 1205 1155"><defs><style>.cls-1{fill:url(#linear-gradient);}.cls-2{fill:url(#linear-gradient-2);}.cls-3{fill:url(#linear-gradient-3);}.cls-4{fill:url(#linear-gradient-4);}.cls-5{stroke:#b5b4b4;stroke-miterlimit:10;}.cls-6{fill:url(#linear-gradient-5);}.cls-7{fill:url(#linear-gradient-6);}.cls-8{fill:url(#linear-gradient-7);}.cls-9{fill:url(#linear-gradient-8);}.cls-10{fill:url(#linear-gradient-9);}.cls-11{fill:url(#linear-gradient-10);}.cls-12{fill:url(#linear-gradient-11);}.cls-13{fill:url(#linear-gradient-12);}</style><linearGradient id="linear-gradient" x1="320.42" y1="378.26" x2="465.58" y2="378.26" gradientTransform="translate(14.75 771.28) rotate(-90)" gradientUnits="userSpaceOnUse"><stop offset="0" stop-color="#fff"/><stop offset="0.05" stop-color="#fbf4e2"/><stop offset="0.14" stop-color="#f6e4b9"/><stop offset="0.23" stop-color="#f1d696"/><stop offset="0.31" stop-color="#eecc7c"/><stop offset="0.41" stop-color="#ebc569"/><stop offset="0.5" stop-color="#e9c05e"/><stop offset="0.6" stop-color="#e9bf5a"/><stop offset="0.67" stop-color="#ebc363"/><stop offset="0.78" stop-color="#f0cf7c"/><stop offset="0.93" stop-color="#f8e3a4"/><stop offset="1" stop-color="#fdeeba"/></linearGradient><linearGradient id="linear-gradient-2" x1="320.42" y1="541.66" x2="465.58" y2="541.66" gradientTransform="translate(-148.65 934.67) rotate(-90)" xlink:href="#linear-gradient"/><linearGradient id="linear-gradient-3" x1="320.41" y1="705.05" x2="465.57" y2="705.05" gradientTransform="translate(-312.05 1098.07) rotate(-90)" xlink:href="#linear-gradient"/><linearGradient id="linear-gradient-4" x1="320.41" y1="868.45" x2="465.57" y2="868.45" gradientTransform="translate(-475.45 1261.46) rotate(-90)" xlink:href="#linear-gradient"/><linearGradient id="linear-gradient-5" x1="496.42" y1="376.26" x2="641.58" y2="376.26" gradientTransform="translate(192.76 945.28) rotate(-90)" xlink:href="#linear-gradient"/><linearGradient id="linear-gradient-6" x1="496.42" y1="539.66" x2="641.58" y2="539.66" gradientTransform="translate(29.36 1108.67) rotate(-90)" xlink:href="#linear-gradient"/><linearGradient id="linear-gradient-7" x1="496.41" y1="703.05" x2="641.57" y2="703.05" gradientTransform="translate(-134.04 1272.07) rotate(-90)" xlink:href="#linear-gradient"/><linearGradient id="linear-gradient-8" x1="496.41" y1="866.45" x2="641.57" y2="866.45" gradientTransform="translate(-297.44 1435.46) rotate(-90)" xlink:href="#linear-gradient"/><linearGradient id="linear-gradient-9" x1="672.42" y1="374.26" x2="817.58" y2="374.26" gradientTransform="translate(370.76 1119.28) rotate(-90)" xlink:href="#linear-gradient"/><linearGradient id="linear-gradient-10" x1="672.42" y1="537.66" x2="817.58" y2="537.66" gradientTransform="translate(207.36 1282.67) rotate(-90)" xlink:href="#linear-gradient"/><linearGradient id="linear-gradient-11" x1="672.41" y1="701.05" x2="817.57" y2="701.05" gradientTransform="translate(43.96 1446.06) rotate(-90)" xlink:href="#linear-gradient"/><linearGradient id="linear-gradient-12" x1="672.41" y1="864.45" x2="817.57" y2="864.45" gradientTransform="translate(-119.43 1609.46) rotate(-90)" xlink:href="#linear-gradient"/></defs><title>grid</title><g id="grid"><rect class="cls-1" x="320.43" y="305.69" width="145.15" height="145.15" rx="6.51" transform="translate(771.28 -14.73) rotate(90)"/><rect class="cls-2" x="320.42" y="469.08" width="145.15" height="145.15" rx="6.51" transform="translate(934.67 148.68) rotate(90)"/><rect class="cls-3" x="320.42" y="632.48" width="145.15" height="145.15" rx="6.51" transform="translate(1098.06 312.08) rotate(90)"/><rect class="cls-4" x="320.41" y="795.87" width="145.15" height="145.15" rx="6.51" transform="translate(1261.44 475.48) rotate(90)"/><rect class="cls-5" x="324.2" y="310.49" width="132.87" height="132.87" rx="7.62" transform="translate(767.57 -13.7) rotate(90)"/><rect class="cls-5" x="326.75" y="475.32" width="132.87" height="132.87" rx="7.62" transform="translate(934.94 148.59) rotate(90)"/><rect class="cls-5" x="326.74" y="638.83" width="132.87" height="132.87" rx="7.62" transform="translate(1098.45 312.11) rotate(90)"/><rect class="cls-5" x="325.46" y="801.08" width="132.87" height="132.87" rx="7.62" transform="translate(1259.42 475.64) rotate(90)"/><rect class="cls-6" x="496.43" y="303.69" width="145.15" height="145.15" rx="6.51" transform="translate(945.28 -192.73) rotate(90)"/><rect class="cls-7" x="496.42" y="467.08" width="145.15" height="145.15" rx="6.51" transform="translate(1108.67 -29.32) rotate(90)"/><rect class="cls-8" x="496.42" y="630.48" width="145.15" height="145.15" rx="6.51" transform="translate(1272.06 134.08) rotate(90)"/><rect class="cls-9" x="496.41" y="793.87" width="145.15" height="145.15" rx="6.51" transform="translate(1435.45 297.48) rotate(90)"/><rect class="cls-5" x="500.2" y="308.49" width="132.87" height="132.87" rx="7.62" transform="translate(941.57 -191.7) rotate(90)"/><rect class="cls-5" x="502.75" y="473.32" width="132.87" height="132.87" rx="7.62" transform="translate(1108.95 -29.41) rotate(90)"/><rect class="cls-5" x="502.74" y="636.83" width="132.87" height="132.87" rx="7.62" transform="translate(1272.46 134.11) rotate(90)"/><rect class="cls-5" x="501.46" y="799.08" width="132.87" height="132.87" rx="7.62" transform="translate(1433.42 297.64) rotate(90)"/><rect class="cls-10" x="672.43" y="301.69" width="145.15" height="145.15" rx="6.51" transform="translate(1119.29 -370.73) rotate(90)"/><rect class="cls-11" x="672.42" y="465.08" width="145.15" height="145.15" rx="6.51" transform="translate(1282.68 -207.32) rotate(90)"/><rect class="cls-12" x="672.42" y="628.48" width="145.15" height="145.15" rx="6.51" transform="translate(1446.07 -43.92) rotate(90)"/><rect class="cls-13" x="672.41" y="791.87" width="145.15" height="145.15" rx="6.51" transform="translate(1609.46 119.48) rotate(90)"/><rect class="cls-5" x="676.2" y="306.49" width="132.87" height="132.87" rx="7.62" transform="translate(1115.58 -369.7) rotate(90)"/><rect class="cls-5" x="678.75" y="471.32" width="132.87" height="132.87" rx="7.62" transform="translate(1282.95 -207.41) rotate(90)"/><rect class="cls-5" x="678.74" y="634.83" width="132.87" height="132.87" rx="7.62" transform="translate(1446.47 -43.89) rotate(90)"/><rect class="cls-5" x="677.46" y="797.08" width="132.87" height="132.87" rx="7.62" transform="translate(1607.43 119.64) rotate(90)"/></g></svg>