<svg xmlns="http://www.w3.org/2000/svg" xmlns:xlink="http://www.w3.org/1999/xlink" viewBox="0 0 511 646"><defs><style>.cls-1{fill:url(#linear-gradient);}.cls-2{fill:url(#linear-gradient-2);}.cls-3{fill:url(#linear-gradient-3);}.cls-4{fill:url(#linear-gradient-4);}.cls-5{stroke:#b5b4b4;stroke-miterlimit:10;}.cls-6{fill:url(#linear-gradient-5);}.cls-7{fill:url(#linear-gradient-6);}.cls-8{fill:url(#linear-gradient-7);}.cls-9{fill:url(#linear-gradient-8);}.cls-10{fill:url(#linear-gradient-9);}.cls-11{fill:url(#linear-gradient-10);}.cls-12{fill:url(#linear-gradient-11);}.cls-13{fill:url(#linear-gradient-12);}</style><linearGradient id="linear-gradient" x1="4.42" y1="86.26" x2="149.58" y2="86.26" gradientTransform="translate(-9.26 163.27) rotate(-90)" gradientUnits="userSpaceOnUse"><stop offset="0" stop-color="#fff"/><stop offset="0.05" stop-color="#fbf4e2"/><stop offset="0.14" stop-color="#f6e4b9"/><stop offset="0.23" stop-color="#f1d696"/><stop offset="0.31" stop-color="#eecc7c"/><stop offset="0.41" stop-color="#ebc569"/><stop offset="0.5" stop-color="#e9c05e"/><stop offset="0.6" stop-color="#e9bf5a"/><stop offset="0.67" stop-color="#ebc363"/><stop offset="0.78" stop-color="#f0cf7c"/><stop offset="0.93" stop-color="#f8e3a4"/><stop offset="1" stop-color="#fdeeba"/></linearGradient><linearGradient id="linear-gradient-2" x1="4.42" y1="249.66" x2="149.58" y2="249.66" gradientTransform="translate(-172.66 326.66) rotate(-90)" xlink:href="#linear-gradient"/><linearGradient id="linear-gradient-3" x1="4.41" y1="413.05" x2="149.57" y2="413.05" gradientTransform="translate(-336.06 490.06) rotate(-90)" xlink:href="#linear-gradient"/><linearGradient id="linear-gradient-4" x1="4.41" y1="576.45" x2="149.57" y2="576.45" gradientTransform="translate(-499.46 653.45) rotate(-90)" xlink:href="#linear-gradient"/><linearGradient id="linear-gradient-5" x1="180.42" y1="84.26" x2="325.58" y2="84.26" gradientTransform="translate(168.75 337.27) rotate(-90)" xlink:href="#linear-gradient"/><linearGradient id="linear-gradient-6" x1="180.42" y1="247.66" x2="325.58" y2="247.66" gradientTransform="translate(5.35 500.66) rotate(-90)" xlink:href="#linear-gradient"/><linearGradient id="linear-gradient-7" x1="180.41" y1="411.05" x2="325.57" y2="411.05" gradientTransform="translate(-158.05 664.06) rotate(-90)" xlink:href="#linear-gradient"/><linearGradient id="linear-gradient-8" x1="180.41" y1="574.45" x2="325.57" y2="574.45" gradientTransform="translate(-321.45 827.45) rotate(-90)" xlink:href="#linear-gradient"/><linearGradient id="linear-gradient-9" x1="356.42" y1="82.26" x2="501.58" y2="82.26" gradientTransform="translate(346.75 511.27) rotate(-90)" xlink:href="#linear-gradient"/><linearGradient id="linear-gradient-10" x1="356.42" y1="245.66" x2="501.58" y2="245.66" gradientTransform="translate(183.35 674.66) rotate(-90)" xlink:href="#linear-gradient"/><linearGradient id="linear-gradient-11" x1="356.41" y1="409.05" x2="501.57" y2="409.05" gradientTransform="translate(19.95 838.06) rotate(-90)" xlink:href="#linear-gradient"/><linearGradient id="linear-gradient-12" x1="356.41" y1="572.45" x2="501.57" y2="572.45" gradientTransform="translate(-143.44 1001.45) rotate(-90)" xlink:href="#linear-gradient"/></defs><title>grid</title><g id="grid"><rect class="cls-1" x="4.43" y="13.69" width="145.15" height="145.15" rx="6.51" transform="translate(163.27 9.26) rotate(90)"/><rect class="cls-2" x="4.42" y="177.08" width="145.15" height="145.15" rx="6.51" transform="translate(326.66 172.67) rotate(90)"/><rect class="cls-3" x="4.42" y="340.48" width="145.15" height="145.15" rx="6.51" transform="translate(490.05 336.07) rotate(90)"/><rect class="cls-4" x="4.41" y="503.87" width="145.15" height="145.15" rx="6.51" transform="translate(653.43 499.48) rotate(90)"/><rect class="cls-5" x="8.2" y="18.49" width="132.87" height="132.87" rx="7.62" transform="translate(159.56 10.29) rotate(90)"/><rect class="cls-5" x="10.75" y="183.32" width="132.87" height="132.87" rx="7.62" transform="translate(326.93 172.58) rotate(90)"/><rect class="cls-5" x="10.74" y="346.83" width="132.87" height="132.87" rx="7.62" transform="translate(490.44 336.11) rotate(90)"/><rect class="cls-5" x="9.46" y="509.08" width="132.87" height="132.87" rx="7.62" transform="translate(651.41 499.63) rotate(90)"/><rect class="cls-6" x="180.43" y="11.69" width="145.15" height="145.15" rx="6.51" transform="translate(337.27 -168.74) rotate(90)"/><rect class="cls-7" x="180.42" y="175.08" width="145.15" height="145.15" rx="6.51" transform="translate(500.66 -5.33) rotate(90)"/><rect class="cls-8" x="180.42" y="338.48" width="145.15" height="145.15" rx="6.51" transform="translate(664.05 158.07) rotate(90)"/><rect class="cls-9" x="180.41" y="501.87" width="145.15" height="145.15" rx="6.51" transform="translate(827.44 321.48) rotate(90)"/><rect class="cls-5" x="184.2" y="16.49" width="132.87" height="132.87" rx="7.62" transform="translate(333.56 -167.71) rotate(90)"/><rect class="cls-5" x="186.75" y="181.32" width="132.87" height="132.87" rx="7.62" transform="translate(500.94 -5.42) rotate(90)"/><rect class="cls-5" x="186.74" y="344.83" width="132.87" height="132.87" rx="7.62" transform="translate(664.45 158.11) rotate(90)"/><rect class="cls-5" x="185.46" y="507.08" width="132.87" height="132.87" rx="7.62" transform="translate(825.41 321.63) rotate(90)"/><rect class="cls-10" x="356.43" y="9.69" width="145.15" height="145.15" rx="6.51" transform="translate(511.28 -346.74) rotate(90)"/><rect class="cls-11" x="356.42" y="173.08" width="145.15" height="145.15" rx="6.51" transform="translate(674.67 -183.33) rotate(90)"/><rect class="cls-12" x="356.42" y="336.48" width="145.15" height="145.15" rx="6.51" transform="translate(838.06 -19.93) rotate(90)"/><rect class="cls-13" x="356.41" y="499.87" width="145.15" height="145.15" rx="6.51" transform="translate(1001.45 143.48) rotate(90)"/><rect class="cls-5" x="360.2" y="14.49" width="132.87" height="132.87" rx="7.62" transform="translate(507.57 -345.71) rotate(90)"/><rect class="cls-5" x="362.75" y="179.32" width="132.87" height="132.87" rx="7.62" transform="translate(674.94 -183.42) rotate(90)"/><rect class="cls-5" x="362.74" y="342.83" width="132.87" height="132.87" rx="7.62" transform="translate(838.46 -19.89) rotate(90)"/><rect class="cls-5" x="361.46" y="505.08" width="132.87" height="132.87" rx="7.62" transform="translate(999.42 143.63) rotate(90)"/></g></svg>