<svg xmlns="http://www.w3.org/2000/svg" viewBox="0 0 435 409"><defs><style>.cls-1{fill:#eec31b;}</style></defs><title>horn</title><g id="instruments"><path class="cls-1" d="M293.8,34.29C290.94,58.68,276.24,88,276.24,88c-6.19,19.48-66.39,87.24-116.55,141.6l-3.55-3.41-3.28,3.4-8.77-7.84,2.16-2.69a1.51,1.51,0,0,0-.24-2.12l-.12-.1a1.51,1.51,0,0,0-2.12.23l-6.8,8.48a1.51,1.51,0,0,0,.23,2.12l.13.1a1.51,1.51,0,0,0,2.12-.23l2.65-3.3,8.55,7.65L148,234.65l3.71,3.57-3.1,3.34-3.77-3.62-3.51,3.65-8.74-7.81L131.5,235l3.16-3.94a1.51,1.51,0,0,0-.24-2.12l-.12-.1a1.5,1.5,0,0,0-2.12.23l-6.8,8.47a1.52,1.52,0,0,0,.23,2.13l.13.1a1.51,1.51,0,0,0,2.12-.23l2.65-3.31,8.59,7.67-2.44,2.54,3.91,3.76-3.11,3.33-4-3.81-3.33,3.47-8.91-8-.83.93,3.2-4a1.51,1.51,0,0,0-.23-2.12l-.13-.11a1.51,1.51,0,0,0-2.12.24l-6.8,8.47a1.51,1.51,0,0,0,.24,2.12l.12.11a1.51,1.51,0,0,0,2.12-.24l2.39-3,8.74,7.82-2.62,2.72,4.08,3.92c-20.84,22.22-36.07,38.17-38.35,40.77-8,9.1-13.73,18.77-10.12,32.2.1.36.21.73.33,1.1L46.72,371.71,57.19,380s12.44-13.31,30.43-32.53c7.84,10,20.74,18.35,32.4,14.87,16.48-4.92,21.67-14.22,21.67-14.22v0c6.14,1.78,11.77-5,11.77-5l27.71-31.22-12.29-11.49s-22.65,25.52-27.3,30.85c-3.83,4.38-7.25,9.64-4.47,13.68h0s-.94,2.59-11.77,8.38-19.44.39-25-3.61a27.55,27.55,0,0,1-7-8.31c16.58-17.71,36.81-39.31,56.16-59.95L192.69,323l8.15-8.48-43.27-41.62,3.12-3.32L204,311.18l8.16-8.48-43.42-41.76,3.12-3.32,43.46,41.79,8.16-8.48-8.34-8,43.78-44.57c22-22.2,7.75-36.42,7.75-36.42-21.09-31.75-47.4-7.57-47.4-7.57l-46.51,47.81-4.11-4c25.72-25.16,58.86-57.52,66.24-64.54,12.43-11.82,29-31,60.29-52.59s63.8-25,63.8-25ZM88.57,328.69c-.09-.5-.16-1-.22-1.5-1-8.57,6.25-15.69,6.25-15.69l42.28-42.22h0l4.9,4.72ZM150,265.56l-4.7-4.52,3.26-3.18,4.62,4.44ZM218.65,208c10.44-10.65,23.07-19,35.08-8.95s3.49,22.5,3.49,22.5l-50.73,53.06L179.92,249C200.11,227.53,215.55,211.13,218.65,208Zm-54.1,42.61-3.17,3.27L157,249.62l3.26-3.19Z"/></g></svg>