<svg xmlns="http://www.w3.org/2000/svg" viewBox="0 0 434 406"><defs><style>.cls-1{fill:#eec31b;}.cls-2{fill:none;stroke:#eec31b;stroke-miterlimit:10;stroke-width:5px;}</style></defs><title>microphone</title><g id="instruments"><path class="cls-1" d="M271.32,169.18l-54.27,13.37a4.67,4.67,0,0,1-5.64-3.41L210,173.52a4.67,4.67,0,0,1,3.41-5.64l54-13.3c-.66-2.67-1.46-6-2.36-9.9L211,158a4.66,4.66,0,0,1-5.64-3.41L204,149a4.67,4.67,0,0,1,3.41-5.64L261.74,130c-.72-3.21-1.47-6.55-2.22-9.93L205,133.45a4.66,4.66,0,0,1-5.64-3.41l-1.38-5.62a4.65,4.65,0,0,1,3.41-5.63l54.9-13.52c-.74-3.38-1.48-6.72-2.18-9.94l-55.16,13.58a4.66,4.66,0,0,1-5.63-3.41l-1.39-5.62a4.67,4.67,0,0,1,3.41-5.64l55.55-13.68c-2.18-10-3.65-16.82-3.65-16.82s-5.52-24.58-40.61-24.13l4.21,17.11A6.06,6.06,0,1,1,199,59.62l-4.65-18.89c-1.8.28-3.95.64-6.32,1.08l4.76,19.34a6.06,6.06,0,1,1-11.77,2.9l-4.83-19.59a105.89,105.89,0,0,0-12.85,4.17s-43.06,19.64-37,52.87c.49,2.72,1.07,5.74,1.71,9l22.74-5.6a4.65,4.65,0,0,1,5.64,3.41l1.39,5.62a4.67,4.67,0,0,1-3.41,5.64l-23.35,5.74c.67,3.24,1.38,6.57,2.1,10l23.68-5.83a4.67,4.67,0,0,1,5.64,3.41l1.38,5.62a4.65,4.65,0,0,1-3.41,5.64L136.37,150c.73,3.32,1.46,6.65,2.19,9.93l24.34-6a4.66,4.66,0,0,1,5.64,3.41l1.38,5.62a4.66,4.66,0,0,1-3.41,5.64l-24.67,6.07c.77,3.45,1.52,6.77,2.23,9.93L169,178.53a4.65,4.65,0,0,1,5.63,3.41l1.39,5.62a4.66,4.66,0,0,1-3.41,5.63l-25.14,6.19c1.9,8.31,3.11,13.52,3.11,13.52s4.69,15.21,24.86,18.34a59,59,0,0,0,6.05,19.89c4.86,9.68,11.64,17.25,18.67,21.65V358h37.26V258.06h-7.46c.75-8.31-1.25-18.37-6.16-28.16A64.07,64.07,0,0,0,219,222l-2-7.94a6.06,6.06,0,0,1,11.78-2.89l3.47,14.1c2.07-.57,4.12-1.17,6.14-1.83l-3.4-13.8a6.06,6.06,0,1,1,11.77-2.9l3,12.37c2-.87,4-1.78,5.91-2.76L253,205.18a6.07,6.07,0,1,1,11.78-2.9l1.75,7.14C277.46,199.13,275,183.65,271.32,169.18Z"/><path class="cls-2" d="M233.52,220.41c10,20,9.2,40.75-1.87,46.31s-28.18-6.18-38.22-26.2"/></g></svg>