<svg xmlns="http://www.w3.org/2000/svg" viewBox="0 0 1157 425"><defs><style>.cls-1{font-size:122.13px;fill:#ffde55;font-family:GrenadierNF, Grenadier NF;}.cls-2{letter-spacing:-0.01em;}.cls-3{letter-spacing:-0.02em;}.cls-4{letter-spacing:-0.05em;}.cls-5,.cls-6,.cls-7{fill:none;stroke:#ecde80;stroke-miterlimit:10;}.cls-5{stroke-width:4px;}.cls-6,.cls-7{stroke-linecap:round;}.cls-6{stroke-width:6px;}.cls-7{stroke-width:3px;}</style></defs><title>roaring_twenties</title><g id="text"><text class="cls-1" transform="translate(140 210.48)"><tspan class="cls-2">R</tspan><tspan x="64.12" y="0">O</tspan><tspan class="cls-3" x="162.3" y="0">A</tspan><tspan x="220.44" y="0">RING </tspan></text><text class="cls-1" transform="translate(606.32 210.2)">TWE<tspan class="cls-4" x="182.33" y="0">N</tspan><tspan x="231.8" y="0">TIES</tspan></text><path class="cls-5" d="M585.1,221.21a259.77,259.77,0,0,1-50.37,32.57S567.11,272.39,585.1,291c0,0,21.59-23.26,50.37-37.22C635.47,253.78,606.69,239.82,585.1,221.21Z"/><path class="cls-5" d="M583.38,237a149,149,0,0,1-28.91,18.69s18.58,10.68,28.91,21.36c0,0,12.39-13.35,28.91-21.36C612.29,255.68,595.77,247.67,583.38,237Z"/><path class="cls-5" d="M552.72,255.32s-20.49-13.17-37.57-13.17-27.33,13.17-13.66,22S542.47,264.1,552.72,255.32Z"/><path class="cls-5" d="M612.17,255.86s20.49-13.17,37.57-13.17,27.32,13.17,13.66,21.95S622.41,264.64,612.17,255.86Z"/><path class="cls-5" d="M533.49,254.33s-26.23-9.85-48.09-9.85-35,9.85-17.49,16.42S520.37,260.9,533.49,254.33Z"/><path class="cls-5" d="M637.11,256.41s26.22-9.85,48.08-9.85,35,9.85,17.49,16.42S650.22,263,637.11,256.41Z"/><line class="cls-6" x1="457.33" y1="254.08" x2="327.71" y2="255.67"/><line class="cls-7" x1="203.73" y1="253.88" x2="338.31" y2="255.67"/><line class="cls-6" x1="711.55" y1="257.1" x2="841.17" y2="258.69"/><line class="cls-7" x1="968.89" y1="256.9" x2="834.31" y2="258.69"/></g></svg>