<svg xmlns="http://www.w3.org/2000/svg" viewBox="0 0 434 408"><defs><style>.cls-1{fill:#eec31b;}</style></defs><title>sax</title><g id="instruments"><path class="cls-1" d="M318.49,186.62c-42.51-39.56-116.33-39.51-104.13-29S236,203.56,236,203.56s.18.65.45,1.7a15.14,15.14,0,1,1,8.39,28.79,14.46,14.46,0,0,1-2.93.14c.22,1.72.42,3.48.61,5.27a12.18,12.18,0,0,1,3.28,24.13,11.9,11.9,0,0,1-2.3.11c-.05,1.56-.13,3.12-.24,4.67A9.89,9.89,0,1,1,240,287.52c-7.77,25.63-22.45-3.15-22.45-3.15S211.32,260.32,203,228.1c4.55-1,7.75-4.25,7.25-7.63-.54-3.56-5-5.85-9.89-5.12l-.62.14q-1.09-4.26-2.23-8.64c4.53-1,7.72-4.25,7.21-7.62-.53-3.57-5-5.86-9.89-5.12-.2,0-.38.09-.57.13-.74-2.86-1.48-5.75-2.23-8.64,4.5-1,7.67-4.25,7.17-7.62-.54-3.56-5-5.85-9.89-5.11-.18,0-.35.08-.52.12q-1.12-4.34-2.22-8.65c4.47-1,7.61-4.25,7.1-7.6-.53-3.56-5-5.85-9.89-5.11-.15,0-.3.07-.45.1-10.61-41.39-20-78.54-21.76-87-4.37-21.07-19.79-26.47-19.79-26.47l-52.3,3.32L72.09,56.36s28.79-6.43,50.51-5.4S142.37,60,146.21,82s11.63,72.05,26.95,154.5,35.29,98.81,35.29,98.81C256.9,373.33,276.14,320,281,309.65s9-47.66,12-77.44,17.29-30.55,17.29-30.55C345.92,212.66,318.49,186.62,318.49,186.62Z"/><path class="cls-1" d="M227.56,221.31a15.14,15.14,0,0,0,14.31,12.88,247,247,0,0,0-5.46-28.93A15.13,15.13,0,0,0,227.56,221.31Z"/><path class="cls-1" d="M242.14,239.48a12.18,12.18,0,0,0,1.32,24.22,176.63,176.63,0,0,0-1-24.24C242.37,239.47,242.25,239.46,242.14,239.48Z"/><path class="cls-1" d="M241.3,282.6a102.64,102.64,0,0,0,1.92-14.23,11.49,11.49,0,0,0-1.31.06A9.88,9.88,0,0,0,240,287.52C240.47,286.05,240.9,284.44,241.3,282.6Z"/></g></svg>